<svg width="11" height="8" viewBox="0 0 11 8" fill="none" xmlns="http://www.w3.org/2000/svg">
<path fill-rule="evenodd" clip-rule="evenodd" d="M0.356467 1.09421C0.510686 0.946 0.717503 0.865011 0.93147 0.869044C1.14544 0.873077 1.34905 0.9618 1.49756 1.11572L5.4914 5.35035L9.48524 1.11572C9.55783 1.03577 9.64575 0.971199 9.74379 0.92582C9.84183 0.88044 9.94799 0.855179 10.056 0.851534C10.164 0.847889 10.2716 0.865935 10.3725 0.904601C10.4734 0.943267 10.5654 1.00177 10.6433 1.07663C10.7211 1.1515 10.7831 1.24121 10.8256 1.34045C10.8681 1.43969 10.8902 1.54644 10.8906 1.65438C10.891 1.76231 10.8698 1.86923 10.8281 1.9688C10.7864 2.06838 10.7251 2.15858 10.6479 2.23406L6.07271 7.07302C5.9974 7.15107 5.9071 7.21316 5.80722 7.25556C5.70734 7.29797 5.59993 7.31982 5.4914 7.31982C5.38287 7.31982 5.27546 7.29797 5.17558 7.25556C5.0757 7.21316 4.9854 7.15107 4.91009 7.07302L0.334937 2.23406C0.186562 2.08001 0.105484 1.87342 0.109521 1.65968C0.113558 1.44595 0.20238 1.24256 0.356467 1.09421Z" fill="#2A2A2A"/>
</svg>
