<svg width="7" height="12" viewBox="0 0 7 12" fill="none" xmlns="http://www.w3.org/2000/svg">
<path d="M6.71 0.710022C6.8027 0.802536 6.87625 0.912424 6.92643 1.0334C6.97661 1.15437 7.00244 1.28405 7.00244 1.41502C7.00244 1.54599 6.97661 1.67567 6.92643 1.79665C6.87625 1.91762 6.8027 2.02751 6.71 2.12002L2.83 6.00002L6.71 9.88002C6.80258 9.9726 6.87602 10.0825 6.92612 10.2035C6.97623 10.3244 7.00202 10.4541 7.00202 10.585C7.00202 10.716 6.97623 10.8456 6.92612 10.9666C6.87602 11.0875 6.80258 11.1974 6.71 11.29C6.61742 11.3826 6.5075 11.456 6.38654 11.5061C6.26558 11.5563 6.13593 11.582 6.005 11.582C5.87407 11.582 5.74442 11.5563 5.62345 11.5061C5.50249 11.456 5.39258 11.3826 5.3 11.29L0.709997 6.70002C0.617294 6.60751 0.543746 6.49762 0.493565 6.37665C0.443383 6.25567 0.417553 6.12599 0.417553 5.99502C0.417553 5.86405 0.443383 5.73437 0.493565 5.6134C0.543746 5.49242 0.617294 5.38254 0.709997 5.29002L5.3 0.700022C5.68 0.320022 6.32 0.320022 6.71 0.710022Z" fill="#EE5B1C"/>
</svg>
