<svg width="16" height="13" viewBox="0 0 16 13" fill="none" xmlns="http://www.w3.org/2000/svg">
<path d="M0 12.5V7.35714C0 6.97143 0.0733334 6.62143 0.22 6.30714C0.366667 5.99286 0.56 5.71429 0.8 5.47143V3.07143C0.8 2.35714 1.03333 1.75 1.5 1.25C1.96667 0.75 2.53333 0.5 3.2 0.5H6.4C6.70667 0.5 6.99333 0.560857 7.26 0.682571C7.52667 0.804286 7.77333 0.972 8 1.18571C8.22667 0.971429 8.47333 0.803714 8.74 0.682571C9.00667 0.561428 9.29333 0.500571 9.6 0.5H12.8C13.4667 0.5 14.0333 0.75 14.5 1.25C14.9667 1.75 15.2 2.35714 15.2 3.07143V5.47143C15.44 5.71429 15.6333 5.99286 15.78 6.30714C15.9267 6.62143 16 6.97143 16 7.35714V12.5H14.4V10.7857H1.6V12.5H0ZM8.8 4.78571H13.6V3.07143C13.6 2.82857 13.5232 2.62486 13.3696 2.46029C13.216 2.29571 13.0261 2.21371 12.8 2.21429H9.6C9.37333 2.21429 9.1832 2.29657 9.0296 2.46114C8.876 2.62571 8.79947 2.82914 8.8 3.07143V4.78571ZM2.4 4.78571H7.2V3.07143C7.2 2.82857 7.1232 2.62486 6.9696 2.46029C6.816 2.29571 6.62613 2.21371 6.4 2.21429H3.2C2.97333 2.21429 2.7832 2.29657 2.6296 2.46114C2.476 2.62571 2.39947 2.82914 2.4 3.07143V4.78571Z" fill="#E98800"/>
</svg>
