<svg width="17" height="16" viewBox="0 0 17 16" fill="none" xmlns="http://www.w3.org/2000/svg">
<path d="M15.6891 1.41452C15.2738 0.966073 14.7806 0.610337 14.2377 0.367629C13.6949 0.124922 13.1131 0 12.5255 0C11.9379 0 11.3561 0.124922 10.8133 0.367629C10.2704 0.610337 9.77724 0.966073 9.36186 1.41452L8.49978 2.34476L7.63771 1.41452C6.79866 0.509117 5.66066 0.0004693 4.47407 0.000469309C3.28747 0.000469319 2.14947 0.509117 1.31042 1.41452C0.471374 2.31992 8.84083e-09 3.5479 0 4.82833C-8.84083e-09 6.10875 0.471374 7.33674 1.31042 8.24214L2.1725 9.17238L8.49978 16L14.8271 9.17238L15.6891 8.24214C16.1047 7.79391 16.4344 7.26171 16.6593 6.67596C16.8842 6.0902 17 5.46237 17 4.82833C17 4.19428 16.8842 3.56645 16.6593 2.9807C16.4344 2.39494 16.1047 1.86275 15.6891 1.41452Z" fill="#E98800"/>
</svg>
