<svg width="38" height="38" viewBox="0 0 38 38" fill="none" xmlns="http://www.w3.org/2000/svg">
<rect width="38" height="38" rx="19" fill="#EE5B1C"/>
<path d="M19.001 16.15C18.2451 16.15 17.5202 16.4503 16.9857 16.9847C16.4512 17.5192 16.151 18.2441 16.151 19C16.151 19.7559 16.4512 20.4808 16.9857 21.0153C17.5202 21.5497 18.2451 21.85 19.001 21.85C19.7568 21.85 20.4818 21.5497 21.0162 21.0153C21.5507 20.4808 21.851 19.7559 21.851 19C21.851 18.2441 21.5507 17.5192 21.0162 16.9847C20.4818 16.4503 19.7568 16.15 19.001 16.15ZM19.001 14.25C20.2608 14.25 21.4689 14.7504 22.3597 15.6412C23.2505 16.532 23.751 17.7402 23.751 19C23.751 20.2598 23.2505 21.468 22.3597 22.3588C21.4689 23.2496 20.2608 23.75 19.001 23.75C17.7412 23.75 16.533 23.2496 15.6422 22.3588C14.7514 21.468 14.251 20.2598 14.251 19C14.251 17.7402 14.7514 16.532 15.6422 15.6412C16.533 14.7504 17.7412 14.25 19.001 14.25ZM25.176 14.0125C25.176 14.3274 25.0509 14.6295 24.8282 14.8522C24.6055 15.0749 24.3034 15.2 23.9885 15.2C23.6735 15.2 23.3715 15.0749 23.1488 14.8522C22.9261 14.6295 22.801 14.3274 22.801 14.0125C22.801 13.6976 22.9261 13.3955 23.1488 13.1728C23.3715 12.9501 23.6735 12.825 23.9885 12.825C24.3034 12.825 24.6055 12.9501 24.8282 13.1728C25.0509 13.3955 25.176 13.6976 25.176 14.0125ZM19.001 11.4C16.6507 11.4 16.2669 11.4067 15.1734 11.4551C14.4286 11.4903 13.9289 11.59 13.4653 11.7705C13.0774 11.9129 12.7266 12.1412 12.4393 12.4383C12.142 12.7256 11.9134 13.0764 11.7705 13.4643C11.59 13.9298 11.4903 14.4286 11.4561 15.1725C11.4067 16.2213 11.4 16.5879 11.4 19C11.4 21.3512 11.4067 21.7341 11.4551 22.8275C11.4903 23.5714 11.59 24.0721 11.7696 24.5347C11.9311 24.948 12.1211 25.2453 12.4365 25.5607C12.7566 25.8799 13.054 26.0708 13.4625 26.2285C13.9318 26.41 14.4315 26.5107 15.1725 26.5449C16.2213 26.5943 16.588 26.6 19 26.6C21.3513 26.6 21.7341 26.5933 22.8276 26.5449C23.5705 26.5097 24.0702 26.41 24.5347 26.2304C24.9223 26.0873 25.2729 25.8591 25.5607 25.5626C25.8809 25.2434 26.0718 24.946 26.2295 24.5366C26.41 24.0692 26.5107 23.5695 26.5449 22.8266C26.5943 21.7787 26.6 21.4111 26.6 19C26.6 16.6497 26.5934 16.2659 26.5449 15.1725C26.5098 14.4296 26.4091 13.9279 26.2295 13.4643C26.0863 13.0768 25.8581 12.7262 25.5617 12.4383C25.2745 12.1409 24.9238 11.9122 24.5357 11.7695C24.0702 11.589 23.5705 11.4893 22.8276 11.4551C21.7797 11.4057 21.414 11.4 19.001 11.4ZM19.001 9.5C21.5821 9.5 21.9042 9.5095 22.9178 9.557C23.9286 9.6045 24.6183 9.76315 25.2235 9.99875C25.8505 10.2401 26.3787 10.5668 26.9069 11.0941C27.3899 11.569 27.7637 12.1435 28.0022 12.7775C28.2369 13.3826 28.3965 14.0723 28.444 15.0841C28.4886 16.0968 28.501 16.4188 28.501 19C28.501 21.5812 28.4915 21.9032 28.444 22.9159C28.3965 23.9276 28.2369 24.6164 28.0022 25.2225C27.7644 25.8569 27.3905 26.4315 26.9069 26.9059C26.4318 27.3888 25.8574 27.7626 25.2235 28.0012C24.6183 28.2359 23.9286 28.3955 22.9178 28.443C21.9042 28.4876 21.5821 28.5 19.001 28.5C16.4198 28.5 16.0978 28.4905 15.0841 28.443C14.0733 28.3955 13.3846 28.2359 12.7785 28.0012C12.1442 27.7633 11.5696 27.3894 11.0951 26.9059C10.6119 26.4311 10.2381 25.8566 9.99973 25.2225C9.76413 24.6173 9.60548 23.9276 9.55798 22.9159C9.51238 21.9032 9.50098 21.5812 9.50098 19C9.50098 16.4188 9.51048 16.0968 9.55798 15.0841C9.60548 14.0714 9.76413 13.3836 9.99973 12.7775C10.2375 12.1431 10.6113 11.5685 11.0951 11.0941C11.5698 10.6108 12.1443 10.2369 12.7785 9.99875C13.3836 9.76315 14.0724 9.6045 15.0841 9.557C16.0978 9.51235 16.4198 9.5 19.001 9.5Z" fill="white"/>
</svg>
