<svg width="39" height="34" viewBox="0 0 39 34" fill="none" xmlns="http://www.w3.org/2000/svg">
<path d="M34.3331 4.65222C33.477 3.81139 32.4606 3.14438 31.3419 2.6893C30.2233 2.23423 29.0242 2 27.8133 2C26.6024 2 25.4033 2.23423 24.2846 2.6893C23.1659 3.14438 22.1495 3.81139 21.2935 4.65222L19.5168 6.39642L17.7402 4.65222C16.0111 2.95459 13.6658 2.00088 11.2204 2.00088C8.77501 2.00088 6.42976 2.95459 4.7006 4.65222C2.97143 6.34984 2 8.65231 2 11.0531C2 13.4539 2.97143 15.7564 4.7006 17.454L6.47721 19.1982L19.5168 32L32.5565 19.1982L34.3331 17.454C35.1895 16.6136 35.8689 15.6157 36.3325 14.5174C36.796 13.4191 37.0346 12.2419 37.0346 11.0531C37.0346 9.86428 36.796 8.68709 36.3325 7.5888C35.8689 6.49052 35.1895 5.49265 34.3331 4.65222Z" stroke="white" stroke-width="3" stroke-linecap="round" stroke-linejoin="round"/>
</svg>
