<svg width="38" height="38" viewBox="0 0 38 38" fill="none" xmlns="http://www.w3.org/2000/svg">
<rect width="38" height="38" rx="19" fill="#EE5B1C"/>
<path d="M14.1929 12.3502C14.1927 12.8541 13.9923 13.3373 13.6358 13.6934C13.2793 14.0495 12.7959 14.2495 12.292 14.2492C11.7881 14.249 11.3049 14.0485 10.9488 13.6921C10.5926 13.3356 10.3927 12.8522 10.3929 12.3483C10.3932 11.8444 10.5936 11.3612 10.9501 11.005C11.3066 10.6489 11.79 10.449 12.2939 10.4492C12.7978 10.4495 13.281 10.6499 13.6371 11.0064C13.9933 11.3629 14.1932 11.8463 14.1929 12.3502ZM14.2499 15.6562H10.4499V27.5502H14.2499V15.6562ZM20.2539 15.6562H16.4729V27.5502H20.2159V21.3087C20.2159 17.8317 24.7474 17.5087 24.7474 21.3087V27.5502H28.4999V20.0167C28.4999 14.1552 21.7929 14.3737 20.2159 17.2522L20.2539 15.6562Z" fill="white"/>
</svg>
