<svg width="21" height="20" viewBox="0 0 21 20" fill="none" xmlns="http://www.w3.org/2000/svg">
<path d="M19.4532 14.4765V17.1862C19.4543 17.4377 19.4013 17.6867 19.2978 17.9172C19.1943 18.1477 19.0424 18.3546 18.852 18.5247C18.6616 18.6947 18.4368 18.8242 18.192 18.9048C17.9472 18.9854 17.6879 19.0153 17.4305 18.9927C14.5753 18.6907 11.8328 17.7409 9.42314 16.2197C7.18129 14.8329 5.2806 12.9827 3.85603 10.8003C2.28795 8.44389 1.31209 5.76107 1.00753 2.96915C0.984345 2.71938 1.01484 2.46764 1.09707 2.22996C1.1793 1.99229 1.31147 1.77389 1.48516 1.58866C1.65885 1.40343 1.87025 1.25544 2.10591 1.15411C2.34157 1.05278 2.59633 1.00032 2.85395 1.00009H5.63751C6.0878 0.995773 6.52434 1.151 6.86576 1.43683C7.20718 1.72267 7.43019 2.11961 7.49321 2.55366C7.6107 3.42084 7.82858 4.27229 8.14271 5.09177C8.26754 5.41507 8.29456 5.76642 8.22056 6.1042C8.14656 6.44198 7.97464 6.75203 7.72517 6.99761L6.5468 8.14473C7.86765 10.406 9.79099 12.2784 12.1139 13.5642L13.2923 12.4171C13.5446 12.1742 13.863 12.0069 14.21 11.9348C14.557 11.8628 14.9179 11.8891 15.25 12.0106C16.0919 12.3164 16.9665 12.5285 17.8573 12.6429C18.308 12.7048 18.7197 12.9258 19.0139 13.2639C19.3082 13.6019 19.4645 14.0335 19.4532 14.4765Z" stroke="white" stroke-width="2" stroke-linecap="round" stroke-linejoin="round"/>
</svg>
