<svg width="12" height="11" viewBox="0 0 12 11" fill="none" xmlns="http://www.w3.org/2000/svg">
<path d="M1.625 2.14583C1.625 1.58233 2.08233 1.125 2.64583 1.125H3.52083C3.63687 1.125 3.74815 1.07891 3.83019 0.996859C3.91224 0.914812 3.95833 0.803532 3.95833 0.6875C3.95833 0.571468 3.91224 0.460188 3.83019 0.378141C3.74815 0.296094 3.63687 0.25 3.52083 0.25H2.64583C2.14303 0.25 1.66081 0.449739 1.30528 0.805277C0.949739 1.16081 0.75 1.64303 0.75 2.14583V3.02083C0.75 3.13687 0.796094 3.24815 0.878141 3.33019C0.960188 3.41224 1.07147 3.45833 1.1875 3.45833C1.30353 3.45833 1.41481 3.41224 1.49686 3.33019C1.57891 3.24815 1.625 3.13687 1.625 3.02083V2.14583ZM9.35417 1.125C9.91767 1.125 10.375 1.58233 10.375 2.14583V3.02083C10.375 3.13687 10.4211 3.24815 10.5031 3.33019C10.5852 3.41224 10.6965 3.45833 10.8125 3.45833C10.9285 3.45833 11.0398 3.41224 11.1219 3.33019C11.2039 3.24815 11.25 3.13687 11.25 3.02083V2.14583C11.25 1.64303 11.0503 1.16081 10.6947 0.805277C10.3392 0.449739 9.85697 0.25 9.35417 0.25H8.47917C8.36313 0.25 8.25185 0.296094 8.16981 0.378141C8.08776 0.460188 8.04167 0.571468 8.04167 0.6875C8.04167 0.803532 8.08776 0.914812 8.16981 0.996859C8.25185 1.07891 8.36313 1.125 8.47917 1.125H9.35417ZM9.35417 9.875C9.62491 9.875 9.88456 9.76745 10.076 9.576C10.2674 9.38456 10.375 9.12491 10.375 8.85417V7.97917C10.375 7.86313 10.4211 7.75185 10.5031 7.66981C10.5852 7.58776 10.6965 7.54167 10.8125 7.54167C10.9285 7.54167 11.0398 7.58776 11.1219 7.66981C11.2039 7.75185 11.25 7.86313 11.25 7.97917V8.85417C11.25 9.35697 11.0503 9.83919 10.6947 10.1947C10.3392 10.5503 9.85697 10.75 9.35417 10.75H8.47917C8.36313 10.75 8.25185 10.7039 8.16981 10.6219C8.08776 10.5398 8.04167 10.4285 8.04167 10.3125C8.04167 10.1965 8.08776 10.0852 8.16981 10.0031C8.25185 9.92109 8.36313 9.875 8.47917 9.875H9.35417ZM2.64583 9.875C2.37509 9.875 2.11544 9.76745 1.924 9.576C1.73255 9.38456 1.625 9.12491 1.625 8.85417V7.97917C1.625 7.86313 1.57891 7.75185 1.49686 7.66981C1.41481 7.58776 1.30353 7.54167 1.1875 7.54167C1.07147 7.54167 0.960188 7.58776 0.878141 7.66981C0.796094 7.75185 0.75 7.86313 0.75 7.97917V8.85417C0.75 9.35697 0.949739 9.83919 1.30528 10.1947C1.66081 10.5503 2.14303 10.75 2.64583 10.75H3.52083C3.63687 10.75 3.74815 10.7039 3.83019 10.6219C3.91224 10.5398 3.95833 10.4285 3.95833 10.3125C3.95833 10.1965 3.91224 10.0852 3.83019 10.0031C3.74815 9.92109 3.63687 9.875 3.52083 9.875H2.64583ZM3.8125 2C3.4644 2 3.13056 2.13828 2.88442 2.38442C2.63828 2.63056 2.5 2.9644 2.5 3.3125V7.6875C2.5 8.0356 2.63828 8.36944 2.88442 8.61558C3.13056 8.86172 3.4644 9 3.8125 9H8.1875C8.5356 9 8.86944 8.86172 9.11558 8.61558C9.36172 8.36944 9.5 8.0356 9.5 7.6875V3.3125C9.5 2.9644 9.36172 2.63056 9.11558 2.38442C8.86944 2.13828 8.5356 2 8.1875 2H3.8125Z" fill="#E98800"/>
</svg>
