<svg width="18" height="18" viewBox="0 0 18 18" fill="none" xmlns="http://www.w3.org/2000/svg">
<path d="M5.01439 8.08917C4.81261 7.7261 4.49598 7.44031 4.1142 7.27666C3.73242 7.11301 3.30711 7.08077 2.90502 7.18499C2.50293 7.28921 2.14684 7.52401 1.89263 7.85251C1.63842 8.18101 1.50049 8.58463 1.50049 9.00001C1.50049 9.41538 1.63842 9.819 1.89263 10.1475C2.14684 10.476 2.50293 10.7108 2.90502 10.815C3.30711 10.9192 3.73242 10.887 4.1142 10.7234C4.49598 10.5597 4.81261 10.2739 5.01439 9.91084M5.01439 8.08917C5.16439 8.35917 5.25023 8.66917 5.25023 9.00001C5.25023 9.33084 5.16439 9.64167 5.01439 9.91084M5.01439 8.08917L12.9861 3.66084M5.01439 9.91084L12.9861 14.3392M12.9861 3.66084C13.1029 3.88096 13.2625 4.07556 13.4555 4.23328C13.6485 4.391 13.8709 4.50867 14.1099 4.5794C14.3489 4.65014 14.5996 4.67253 14.8473 4.64525C15.095 4.61798 15.3348 4.54159 15.5527 4.42056C15.7705 4.29953 15.9621 4.13628 16.1161 3.94035C16.2701 3.74443 16.3836 3.51976 16.4497 3.27949C16.5159 3.03922 16.5336 2.78817 16.5016 2.541C16.4696 2.29384 16.3887 2.05553 16.2636 1.84001C16.0169 1.41529 15.6135 1.10429 15.1401 0.973851C14.6666 0.843415 14.1608 0.903959 13.7315 1.14247C13.3022 1.38098 12.9836 1.77841 12.8442 2.24933C12.7048 2.72026 12.7557 3.22708 12.9861 3.66084ZM12.9861 14.3392C12.8664 14.5545 12.7904 14.7913 12.7623 15.0359C12.7342 15.2806 12.7546 15.5285 12.8222 15.7653C12.8899 16.0021 13.0036 16.2233 13.1567 16.4162C13.3099 16.6091 13.4995 16.77 13.7148 16.8896C13.9301 17.0092 14.1669 17.0852 14.4116 17.1133C14.6563 17.1415 14.9041 17.1211 15.1409 17.0534C15.3778 16.9858 15.599 16.8721 15.7919 16.7189C15.9848 16.5658 16.1456 16.3762 16.2652 16.1608C16.5068 15.726 16.5657 15.213 16.4291 14.7347C16.2924 14.2564 15.9713 13.852 15.5365 13.6104C15.1016 13.3689 14.5886 13.3099 14.1103 13.4466C13.632 13.5833 13.2276 13.9043 12.9861 14.3392Z" stroke="#3A4980" stroke-width="1.5" stroke-linecap="round" stroke-linejoin="round"/>
</svg>
