<svg width="10" height="13" viewBox="0 0 10 13" fill="none" xmlns="http://www.w3.org/2000/svg">
<path d="M2.33337 10.5C2.14449 10.5 1.98604 10.436 1.85804 10.308C1.73004 10.18 1.66626 10.0218 1.66671 9.83333C1.66671 9.64444 1.73071 9.486 1.85871 9.358C1.98671 9.23 2.14493 9.16622 2.33337 9.16667C2.52226 9.16667 2.68071 9.23067 2.80871 9.35867C2.93671 9.48667 3.00049 9.64489 3.00004 9.83333C3.00004 10.0222 2.93604 10.1807 2.80804 10.3087C2.68004 10.4367 2.52182 10.5004 2.33337 10.5ZM5.00004 10.5C4.81115 10.5 4.65271 10.436 4.52471 10.308C4.39671 10.18 4.33293 10.0218 4.33337 9.83333C4.33337 9.64444 4.39737 9.486 4.52537 9.358C4.65337 9.23 4.8116 9.16622 5.00004 9.16667C5.18893 9.16667 5.34737 9.23067 5.47537 9.35867C5.60337 9.48667 5.66715 9.64489 5.66671 9.83333C5.66671 10.0222 5.60271 10.1807 5.47471 10.3087C5.34671 10.4367 5.18849 10.5004 5.00004 10.5ZM7.66671 10.5C7.47782 10.5 7.31937 10.436 7.19137 10.308C7.06337 10.18 6.9996 10.0218 7.00004 9.83333C7.00004 9.64444 7.06404 9.486 7.19204 9.358C7.32004 9.23 7.47826 9.16622 7.66671 9.16667C7.8556 9.16667 8.01404 9.23067 8.14204 9.35867C8.27004 9.48667 8.33382 9.64489 8.33337 9.83333C8.33337 10.0222 8.26937 10.1807 8.14137 10.3087C8.01337 10.4367 7.85515 10.5004 7.66671 10.5ZM0.333374 7.83333V6.5C0.333374 5.32222 0.711152 4.3 1.46671 3.43333C2.22226 2.56667 3.17782 2.05556 4.33337 1.9V0.5H5.66671V1.9C6.82226 2.05556 7.77782 2.56667 8.53337 3.43333C9.28893 4.3 9.66671 5.32222 9.66671 6.5V7.83333H0.333374ZM2.33337 12.5C2.14449 12.5 1.98604 12.436 1.85804 12.308C1.73004 12.18 1.66626 12.0218 1.66671 11.8333C1.66671 11.6444 1.73071 11.486 1.85871 11.358C1.98671 11.23 2.14493 11.1662 2.33337 11.1667C2.52226 11.1667 2.68071 11.2307 2.80871 11.3587C2.93671 11.4867 3.00049 11.6449 3.00004 11.8333C3.00004 12.0222 2.93604 12.1807 2.80804 12.3087C2.68004 12.4367 2.52182 12.5004 2.33337 12.5ZM5.00004 12.5C4.81115 12.5 4.65271 12.436 4.52471 12.308C4.39671 12.18 4.33293 12.0218 4.33337 11.8333C4.33337 11.6444 4.39737 11.486 4.52537 11.358C4.65337 11.23 4.8116 11.1662 5.00004 11.1667C5.18893 11.1667 5.34737 11.2307 5.47537 11.3587C5.60337 11.4867 5.66715 11.6449 5.66671 11.8333C5.66671 12.0222 5.60271 12.1807 5.47471 12.3087C5.34671 12.4367 5.18849 12.5004 5.00004 12.5ZM7.66671 12.5C7.47782 12.5 7.31937 12.436 7.19137 12.308C7.06337 12.18 6.9996 12.0218 7.00004 11.8333C7.00004 11.6444 7.06404 11.486 7.19204 11.358C7.32004 11.23 7.47826 11.1662 7.66671 11.1667C7.8556 11.1667 8.01404 11.2307 8.14204 11.3587C8.27004 11.4867 8.33382 11.6449 8.33337 11.8333C8.33337 12.0222 8.26937 12.1807 8.14137 12.3087C8.01337 12.4367 7.85515 12.5004 7.66671 12.5Z" fill="#E98800"/>
</svg>
