<svg width="14" height="18" viewBox="0 0 14 18" fill="none" xmlns="http://www.w3.org/2000/svg">
<path d="M3 15C2.71667 15 2.479 14.904 2.287 14.712C2.095 14.52 1.99933 14.2827 2 14C2 13.7167 2.096 13.479 2.288 13.287C2.48 13.095 2.71733 12.9993 3 13C3.28333 13 3.521 13.096 3.713 13.288C3.905 13.48 4.00067 13.7173 4 14C4 14.2833 3.904 14.521 3.712 14.713C3.52 14.905 3.28267 15.0007 3 15ZM7 15C6.71667 15 6.479 14.904 6.287 14.712C6.095 14.52 5.99933 14.2827 6 14C6 13.7167 6.096 13.479 6.288 13.287C6.48 13.095 6.71733 12.9993 7 13C7.28333 13 7.521 13.096 7.713 13.288C7.905 13.48 8.00067 13.7173 8 14C8 14.2833 7.904 14.521 7.712 14.713C7.52 14.905 7.28267 15.0007 7 15ZM11 15C10.7167 15 10.479 14.904 10.287 14.712C10.095 14.52 9.99933 14.2827 10 14C10 13.7167 10.096 13.479 10.288 13.287C10.48 13.095 10.7173 12.9993 11 13C11.2833 13 11.521 13.096 11.713 13.288C11.905 13.48 12.0007 13.7173 12 14C12 14.2833 11.904 14.521 11.712 14.713C11.52 14.905 11.2827 15.0007 11 15ZM0 11V9C0 7.23333 0.566666 5.7 1.7 4.4C2.83333 3.1 4.26667 2.33333 6 2.1V0H8V2.1C9.73333 2.33333 11.1667 3.1 12.3 4.4C13.4333 5.7 14 7.23333 14 9V11H0ZM3 18C2.71667 18 2.479 17.904 2.287 17.712C2.095 17.52 1.99933 17.2827 2 17C2 16.7167 2.096 16.479 2.288 16.287C2.48 16.095 2.71733 15.9993 3 16C3.28333 16 3.521 16.096 3.713 16.288C3.905 16.48 4.00067 16.7173 4 17C4 17.2833 3.904 17.521 3.712 17.713C3.52 17.905 3.28267 18.0007 3 18ZM7 18C6.71667 18 6.479 17.904 6.287 17.712C6.095 17.52 5.99933 17.2827 6 17C6 16.7167 6.096 16.479 6.288 16.287C6.48 16.095 6.71733 15.9993 7 16C7.28333 16 7.521 16.096 7.713 16.288C7.905 16.48 8.00067 16.7173 8 17C8 17.2833 7.904 17.521 7.712 17.713C7.52 17.905 7.28267 18.0007 7 18ZM11 18C10.7167 18 10.479 17.904 10.287 17.712C10.095 17.52 9.99933 17.2827 10 17C10 16.7167 10.096 16.479 10.288 16.287C10.48 16.095 10.7173 15.9993 11 16C11.2833 16 11.521 16.096 11.713 16.288C11.905 16.48 12.0007 16.7173 12 17C12 17.2833 11.904 17.521 11.712 17.713C11.52 17.905 11.2827 18.0007 11 18Z" fill="#535353"/>
</svg>
