<svg width="18" height="18" viewBox="0 0 18 18" fill="none" xmlns="http://www.w3.org/2000/svg">
<path d="M1.5 3.25C1.5 2.284 2.284 1.5 3.25 1.5H4.75C4.94891 1.5 5.13968 1.42098 5.28033 1.28033C5.42098 1.13968 5.5 0.948912 5.5 0.75C5.5 0.551088 5.42098 0.360322 5.28033 0.21967C5.13968 0.0790175 4.94891 0 4.75 0H3.25C2.38805 0 1.5614 0.34241 0.951903 0.951903C0.34241 1.5614 0 2.38805 0 3.25V4.75C0 4.94891 0.0790175 5.13968 0.21967 5.28033C0.360322 5.42098 0.551088 5.5 0.75 5.5C0.948912 5.5 1.13968 5.42098 1.28033 5.28033C1.42098 5.13968 1.5 4.94891 1.5 4.75V3.25ZM14.75 1.5C15.716 1.5 16.5 2.284 16.5 3.25V4.75C16.5 4.94891 16.579 5.13968 16.7197 5.28033C16.8603 5.42098 17.0511 5.5 17.25 5.5C17.4489 5.5 17.6397 5.42098 17.7803 5.28033C17.921 5.13968 18 4.94891 18 4.75V3.25C18 2.38805 17.6576 1.5614 17.0481 0.951903C16.4386 0.34241 15.612 0 14.75 0H13.25C13.0511 0 12.8603 0.0790175 12.7197 0.21967C12.579 0.360322 12.5 0.551088 12.5 0.75C12.5 0.948912 12.579 1.13968 12.7197 1.28033C12.8603 1.42098 13.0511 1.5 13.25 1.5H14.75ZM14.75 16.5C15.2141 16.5 15.6592 16.3156 15.9874 15.9874C16.3156 15.6592 16.5 15.2141 16.5 14.75V13.25C16.5 13.0511 16.579 12.8603 16.7197 12.7197C16.8603 12.579 17.0511 12.5 17.25 12.5C17.4489 12.5 17.6397 12.579 17.7803 12.7197C17.921 12.8603 18 13.0511 18 13.25V14.75C18 15.612 17.6576 16.4386 17.0481 17.0481C16.4386 17.6576 15.612 18 14.75 18H13.25C13.0511 18 12.8603 17.921 12.7197 17.7803C12.579 17.6397 12.5 17.4489 12.5 17.25C12.5 17.0511 12.579 16.8603 12.7197 16.7197C12.8603 16.579 13.0511 16.5 13.25 16.5H14.75ZM3.25 16.5C2.78587 16.5 2.34075 16.3156 2.01256 15.9874C1.68437 15.6592 1.5 15.2141 1.5 14.75V13.25C1.5 13.0511 1.42098 12.8603 1.28033 12.7197C1.13968 12.579 0.948912 12.5 0.75 12.5C0.551088 12.5 0.360322 12.579 0.21967 12.7197C0.0790175 12.8603 0 13.0511 0 13.25V14.75C0 15.612 0.34241 16.4386 0.951903 17.0481C1.5614 17.6576 2.38805 18 3.25 18H4.75C4.94891 18 5.13968 17.921 5.28033 17.7803C5.42098 17.6397 5.5 17.4489 5.5 17.25C5.5 17.0511 5.42098 16.8603 5.28033 16.7197C5.13968 16.579 4.94891 16.5 4.75 16.5H3.25ZM5.25 3C4.65326 3 4.08097 3.23705 3.65901 3.65901C3.23705 4.08097 3 4.65326 3 5.25V12.75C3 13.3467 3.23705 13.919 3.65901 14.341C4.08097 14.7629 4.65326 15 5.25 15H12.75C13.3467 15 13.919 14.7629 14.341 14.341C14.7629 13.919 15 13.3467 15 12.75V5.25C15 4.65326 14.7629 4.08097 14.341 3.65901C13.919 3.23705 13.3467 3 12.75 3H5.25Z" fill="#535353"/>
</svg>
