<svg width="14" height="14" viewBox="0 0 14 14" fill="none" xmlns="http://www.w3.org/2000/svg">
<path d="M6.65335 1.83268C6.68155 1.7639 6.72957 1.70506 6.7913 1.66365C6.85303 1.62224 6.92568 1.60013 7.00002 1.60013C7.07435 1.60013 7.14701 1.62224 7.20874 1.66365C7.27047 1.70506 7.31849 1.7639 7.34669 1.83268L8.76335 5.24001C8.78987 5.30377 8.83346 5.35897 8.88933 5.39955C8.9452 5.44013 9.01119 5.46451 9.08002 5.47001L12.7587 5.76468C13.0914 5.79134 13.226 6.20668 12.9727 6.42334L10.17 8.82468C10.1177 8.86947 10.0786 8.92782 10.0572 8.99331C10.0358 9.05881 10.0329 9.12894 10.0487 9.19601L10.9054 12.786C10.9226 12.858 10.9181 12.9335 10.8924 13.003C10.8667 13.0725 10.821 13.1328 10.7611 13.1763C10.7012 13.2198 10.6297 13.2446 10.5557 13.2475C10.4817 13.2504 10.4085 13.2313 10.3454 13.1927L7.19535 11.2693C7.13651 11.2335 7.06893 11.2145 7.00002 11.2145C6.93111 11.2145 6.86353 11.2335 6.80469 11.2693L3.65469 13.1933C3.59152 13.232 3.51832 13.2511 3.44432 13.2482C3.37033 13.2452 3.29885 13.2205 3.23893 13.177C3.17901 13.1334 3.13333 13.0731 3.10765 13.0037C3.08198 12.9342 3.07747 12.8587 3.09469 12.7867L3.95135 9.19601C3.96724 9.12894 3.96432 9.05879 3.94291 8.99328C3.92151 8.92776 3.88244 8.86942 3.83002 8.82468L1.02735 6.42334C0.971228 6.37509 0.930626 6.31131 0.910652 6.24003C0.890678 6.16876 0.892224 6.09317 0.915096 6.02278C0.937968 5.95238 0.981145 5.89031 1.0392 5.84439C1.09725 5.79847 1.16758 5.77073 1.24135 5.76468L4.92002 5.47001C4.98885 5.46451 5.05483 5.44013 5.1107 5.39955C5.16657 5.35897 5.21017 5.30377 5.23669 5.24001L6.65335 1.83268Z" stroke="#D48D3B" stroke-width="1.5" stroke-linecap="round" stroke-linejoin="round"/>
</svg>
